<mxfile host="app.diagrams.net" agent="Mozilla/5.0 (Windows NT 10.0; Win64; x64) AppleWebKit/537.36 (KHTML, like Gecko) Chrome/132.0.0.0 Safari/537.36 Edg/132.0.0.0" version="25.0.3">
  <diagram name="Page-1" id="3eZjOXAqQ1JEdNih7OXI">
    <mxGraphModel dx="780" dy="533" grid="1" gridSize="10" guides="1" tooltips="1" connect="1" arrows="1" fold="1" page="1" pageScale="1" pageWidth="850" pageHeight="1100" math="0" shadow="0">
      <root>
        <mxCell id="0" />
        <mxCell id="1" parent="0" />
        <mxCell id="2l3vAcWEjjtS_qcAfoKr-1" value="Nim" style="swimlane;fontStyle=0;childLayout=stackLayout;horizontal=1;startSize=30;horizontalStack=0;resizeParent=1;resizeParentMax=0;resizeLast=0;collapsible=1;marginBottom=0;whiteSpace=wrap;html=1;" vertex="1" parent="1">
          <mxGeometry x="120" y="80" width="60" height="90" as="geometry" />
        </mxCell>
        <mxCell id="2l3vAcWEjjtS_qcAfoKr-2" value="IDNODE" style="text;strokeColor=none;fillColor=none;align=left;verticalAlign=middle;spacingLeft=4;spacingRight=4;overflow=hidden;points=[[0,0.5],[1,0.5]];portConstraint=eastwest;rotatable=0;whiteSpace=wrap;html=1;" vertex="1" parent="2l3vAcWEjjtS_qcAfoKr-1">
          <mxGeometry y="30" width="60" height="30" as="geometry" />
        </mxCell>
        <mxCell id="2l3vAcWEjjtS_qcAfoKr-3" value="NEXT" style="text;strokeColor=none;fillColor=none;align=left;verticalAlign=middle;spacingLeft=4;spacingRight=4;overflow=hidden;points=[[0,0.5],[1,0.5]];portConstraint=eastwest;rotatable=0;whiteSpace=wrap;html=1;" vertex="1" parent="2l3vAcWEjjtS_qcAfoKr-1">
          <mxGeometry y="60" width="60" height="30" as="geometry" />
        </mxCell>
        <mxCell id="2l3vAcWEjjtS_qcAfoKr-5" value="Single Node" style="text;html=1;align=center;verticalAlign=middle;whiteSpace=wrap;rounded=0;" vertex="1" parent="1">
          <mxGeometry x="10" y="10" width="110" height="30" as="geometry" />
        </mxCell>
        <mxCell id="2l3vAcWEjjtS_qcAfoKr-6" value="Nim" style="swimlane;fontStyle=0;childLayout=stackLayout;horizontal=1;startSize=30;horizontalStack=0;resizeParent=1;resizeParentMax=0;resizeLast=0;collapsible=1;marginBottom=0;whiteSpace=wrap;html=1;" vertex="1" parent="1">
          <mxGeometry x="230" y="80" width="60" height="90" as="geometry" />
        </mxCell>
        <mxCell id="2l3vAcWEjjtS_qcAfoKr-7" value="IDNODE" style="text;strokeColor=none;fillColor=none;align=left;verticalAlign=middle;spacingLeft=4;spacingRight=4;overflow=hidden;points=[[0,0.5],[1,0.5]];portConstraint=eastwest;rotatable=0;whiteSpace=wrap;html=1;" vertex="1" parent="2l3vAcWEjjtS_qcAfoKr-6">
          <mxGeometry y="30" width="60" height="30" as="geometry" />
        </mxCell>
        <mxCell id="2l3vAcWEjjtS_qcAfoKr-8" value="NEXT" style="text;strokeColor=none;fillColor=none;align=left;verticalAlign=middle;spacingLeft=4;spacingRight=4;overflow=hidden;points=[[0,0.5],[1,0.5]];portConstraint=eastwest;rotatable=0;whiteSpace=wrap;html=1;" vertex="1" parent="2l3vAcWEjjtS_qcAfoKr-6">
          <mxGeometry y="60" width="60" height="30" as="geometry" />
        </mxCell>
        <mxCell id="2l3vAcWEjjtS_qcAfoKr-9" value="Nim" style="swimlane;fontStyle=0;childLayout=stackLayout;horizontal=1;startSize=30;horizontalStack=0;resizeParent=1;resizeParentMax=0;resizeLast=0;collapsible=1;marginBottom=0;whiteSpace=wrap;html=1;" vertex="1" parent="1">
          <mxGeometry x="340" y="80" width="60" height="90" as="geometry" />
        </mxCell>
        <mxCell id="2l3vAcWEjjtS_qcAfoKr-10" value="IDNODE" style="text;strokeColor=none;fillColor=none;align=left;verticalAlign=middle;spacingLeft=4;spacingRight=4;overflow=hidden;points=[[0,0.5],[1,0.5]];portConstraint=eastwest;rotatable=0;whiteSpace=wrap;html=1;" vertex="1" parent="2l3vAcWEjjtS_qcAfoKr-9">
          <mxGeometry y="30" width="60" height="30" as="geometry" />
        </mxCell>
        <mxCell id="2l3vAcWEjjtS_qcAfoKr-11" value="NEXT" style="text;strokeColor=none;fillColor=none;align=left;verticalAlign=middle;spacingLeft=4;spacingRight=4;overflow=hidden;points=[[0,0.5],[1,0.5]];portConstraint=eastwest;rotatable=0;whiteSpace=wrap;html=1;" vertex="1" parent="2l3vAcWEjjtS_qcAfoKr-9">
          <mxGeometry y="60" width="60" height="30" as="geometry" />
        </mxCell>
        <mxCell id="2l3vAcWEjjtS_qcAfoKr-15" style="edgeStyle=orthogonalEdgeStyle;rounded=0;orthogonalLoop=1;jettySize=auto;html=1;" edge="1" parent="1" source="2l3vAcWEjjtS_qcAfoKr-14" target="2l3vAcWEjjtS_qcAfoKr-1">
          <mxGeometry relative="1" as="geometry" />
        </mxCell>
        <mxCell id="2l3vAcWEjjtS_qcAfoKr-14" value="Head" style="rounded=1;whiteSpace=wrap;html=1;fillColor=#d5e8d4;strokeColor=#82b366;" vertex="1" parent="1">
          <mxGeometry x="130" y="20" width="40" height="30" as="geometry" />
        </mxCell>
        <mxCell id="2l3vAcWEjjtS_qcAfoKr-17" style="edgeStyle=orthogonalEdgeStyle;rounded=0;orthogonalLoop=1;jettySize=auto;html=1;exitX=0.5;exitY=1;exitDx=0;exitDy=0;entryX=0.5;entryY=0;entryDx=0;entryDy=0;" edge="1" parent="1" source="2l3vAcWEjjtS_qcAfoKr-16" target="2l3vAcWEjjtS_qcAfoKr-9">
          <mxGeometry relative="1" as="geometry" />
        </mxCell>
        <mxCell id="2l3vAcWEjjtS_qcAfoKr-16" value="Tail" style="rounded=1;whiteSpace=wrap;html=1;fillColor=#f8cecc;strokeColor=#b85450;" vertex="1" parent="1">
          <mxGeometry x="330" y="20" width="40" height="30" as="geometry" />
        </mxCell>
        <mxCell id="2l3vAcWEjjtS_qcAfoKr-28" value="Circular Single Node" style="text;html=1;align=center;verticalAlign=middle;whiteSpace=wrap;rounded=0;" vertex="1" parent="1">
          <mxGeometry x="10" y="210" width="160" height="30" as="geometry" />
        </mxCell>
        <mxCell id="2l3vAcWEjjtS_qcAfoKr-33" value="Nim" style="swimlane;fontStyle=0;childLayout=stackLayout;horizontal=1;startSize=30;horizontalStack=0;resizeParent=1;resizeParentMax=0;resizeLast=0;collapsible=1;marginBottom=0;whiteSpace=wrap;html=1;" vertex="1" parent="1">
          <mxGeometry x="120" y="290" width="60" height="90" as="geometry" />
        </mxCell>
        <mxCell id="2l3vAcWEjjtS_qcAfoKr-34" value="IDNODE" style="text;strokeColor=none;fillColor=none;align=left;verticalAlign=middle;spacingLeft=4;spacingRight=4;overflow=hidden;points=[[0,0.5],[1,0.5]];portConstraint=eastwest;rotatable=0;whiteSpace=wrap;html=1;" vertex="1" parent="2l3vAcWEjjtS_qcAfoKr-33">
          <mxGeometry y="30" width="60" height="30" as="geometry" />
        </mxCell>
        <mxCell id="2l3vAcWEjjtS_qcAfoKr-35" value="NEXT" style="text;strokeColor=none;fillColor=none;align=left;verticalAlign=middle;spacingLeft=4;spacingRight=4;overflow=hidden;points=[[0,0.5],[1,0.5]];portConstraint=eastwest;rotatable=0;whiteSpace=wrap;html=1;" vertex="1" parent="2l3vAcWEjjtS_qcAfoKr-33">
          <mxGeometry y="60" width="60" height="30" as="geometry" />
        </mxCell>
        <mxCell id="2l3vAcWEjjtS_qcAfoKr-36" value="Nim" style="swimlane;fontStyle=0;childLayout=stackLayout;horizontal=1;startSize=30;horizontalStack=0;resizeParent=1;resizeParentMax=0;resizeLast=0;collapsible=1;marginBottom=0;whiteSpace=wrap;html=1;" vertex="1" parent="1">
          <mxGeometry x="230" y="290" width="60" height="90" as="geometry" />
        </mxCell>
        <mxCell id="2l3vAcWEjjtS_qcAfoKr-37" value="IDNODE" style="text;strokeColor=none;fillColor=none;align=left;verticalAlign=middle;spacingLeft=4;spacingRight=4;overflow=hidden;points=[[0,0.5],[1,0.5]];portConstraint=eastwest;rotatable=0;whiteSpace=wrap;html=1;" vertex="1" parent="2l3vAcWEjjtS_qcAfoKr-36">
          <mxGeometry y="30" width="60" height="30" as="geometry" />
        </mxCell>
        <mxCell id="2l3vAcWEjjtS_qcAfoKr-38" value="NEXT" style="text;strokeColor=none;fillColor=none;align=left;verticalAlign=middle;spacingLeft=4;spacingRight=4;overflow=hidden;points=[[0,0.5],[1,0.5]];portConstraint=eastwest;rotatable=0;whiteSpace=wrap;html=1;" vertex="1" parent="2l3vAcWEjjtS_qcAfoKr-36">
          <mxGeometry y="60" width="60" height="30" as="geometry" />
        </mxCell>
        <mxCell id="2l3vAcWEjjtS_qcAfoKr-40" value="Nim" style="swimlane;fontStyle=0;childLayout=stackLayout;horizontal=1;startSize=30;horizontalStack=0;resizeParent=1;resizeParentMax=0;resizeLast=0;collapsible=1;marginBottom=0;whiteSpace=wrap;html=1;" vertex="1" parent="1">
          <mxGeometry x="340" y="290" width="60" height="90" as="geometry" />
        </mxCell>
        <mxCell id="2l3vAcWEjjtS_qcAfoKr-41" value="IDNODE" style="text;strokeColor=none;fillColor=none;align=left;verticalAlign=middle;spacingLeft=4;spacingRight=4;overflow=hidden;points=[[0,0.5],[1,0.5]];portConstraint=eastwest;rotatable=0;whiteSpace=wrap;html=1;" vertex="1" parent="2l3vAcWEjjtS_qcAfoKr-40">
          <mxGeometry y="30" width="60" height="30" as="geometry" />
        </mxCell>
        <mxCell id="2l3vAcWEjjtS_qcAfoKr-42" value="NEXT" style="text;strokeColor=none;fillColor=none;align=left;verticalAlign=middle;spacingLeft=4;spacingRight=4;overflow=hidden;points=[[0,0.5],[1,0.5]];portConstraint=eastwest;rotatable=0;whiteSpace=wrap;html=1;" vertex="1" parent="2l3vAcWEjjtS_qcAfoKr-40">
          <mxGeometry y="60" width="60" height="30" as="geometry" />
        </mxCell>
        <mxCell id="2l3vAcWEjjtS_qcAfoKr-44" style="edgeStyle=orthogonalEdgeStyle;rounded=0;orthogonalLoop=1;jettySize=auto;html=1;exitX=0.5;exitY=1;exitDx=0;exitDy=0;entryX=0.5;entryY=0;entryDx=0;entryDy=0;" edge="1" parent="1" source="2l3vAcWEjjtS_qcAfoKr-43" target="2l3vAcWEjjtS_qcAfoKr-33">
          <mxGeometry relative="1" as="geometry" />
        </mxCell>
        <mxCell id="2l3vAcWEjjtS_qcAfoKr-43" value="Head" style="rounded=1;whiteSpace=wrap;html=1;fillColor=#d5e8d4;strokeColor=#82b366;" vertex="1" parent="1">
          <mxGeometry x="130" y="240" width="40" height="30" as="geometry" />
        </mxCell>
        <mxCell id="2l3vAcWEjjtS_qcAfoKr-48" style="edgeStyle=orthogonalEdgeStyle;rounded=0;orthogonalLoop=1;jettySize=auto;html=1;entryX=0;entryY=0.5;entryDx=0;entryDy=0;exitX=1;exitY=0.5;exitDx=0;exitDy=0;" edge="1" parent="1" source="2l3vAcWEjjtS_qcAfoKr-42" target="2l3vAcWEjjtS_qcAfoKr-34">
          <mxGeometry relative="1" as="geometry">
            <mxPoint x="430" y="335" as="sourcePoint" />
            <mxPoint x="70" y="330" as="targetPoint" />
            <Array as="points">
              <mxPoint x="400" y="360" />
              <mxPoint x="440" y="360" />
              <mxPoint x="440" y="400" />
              <mxPoint x="100" y="400" />
              <mxPoint x="100" y="335" />
            </Array>
          </mxGeometry>
        </mxCell>
        <mxCell id="2l3vAcWEjjtS_qcAfoKr-50" style="edgeStyle=orthogonalEdgeStyle;rounded=0;orthogonalLoop=1;jettySize=auto;html=1;entryX=0;entryY=0.5;entryDx=0;entryDy=0;" edge="1" parent="1" source="2l3vAcWEjjtS_qcAfoKr-8" target="2l3vAcWEjjtS_qcAfoKr-10">
          <mxGeometry relative="1" as="geometry" />
        </mxCell>
        <mxCell id="2l3vAcWEjjtS_qcAfoKr-51" style="edgeStyle=orthogonalEdgeStyle;rounded=0;orthogonalLoop=1;jettySize=auto;html=1;entryX=0;entryY=0.5;entryDx=0;entryDy=0;" edge="1" parent="1" source="2l3vAcWEjjtS_qcAfoKr-3" target="2l3vAcWEjjtS_qcAfoKr-7">
          <mxGeometry relative="1" as="geometry" />
        </mxCell>
        <mxCell id="2l3vAcWEjjtS_qcAfoKr-52" style="edgeStyle=orthogonalEdgeStyle;rounded=0;orthogonalLoop=1;jettySize=auto;html=1;entryX=0;entryY=0.5;entryDx=0;entryDy=0;" edge="1" parent="1" source="2l3vAcWEjjtS_qcAfoKr-35" target="2l3vAcWEjjtS_qcAfoKr-37">
          <mxGeometry relative="1" as="geometry" />
        </mxCell>
        <mxCell id="2l3vAcWEjjtS_qcAfoKr-54" style="edgeStyle=orthogonalEdgeStyle;rounded=0;orthogonalLoop=1;jettySize=auto;html=1;entryX=0;entryY=0.5;entryDx=0;entryDy=0;" edge="1" parent="1" source="2l3vAcWEjjtS_qcAfoKr-38" target="2l3vAcWEjjtS_qcAfoKr-41">
          <mxGeometry relative="1" as="geometry" />
        </mxCell>
      </root>
    </mxGraphModel>
  </diagram>
</mxfile>
